<svg width="48" height="48" viewBox="0 0 48 48" fill="none" xmlns="http://www.w3.org/2000/svg">
  <circle cx="24" cy="24" r="24" fill="#92A8C9"/>
  <path d="M35.7674 30.1381C35.7674 30.0385 35.6678 30.0385 35.6678 29.9389C35.2693 29.1418 34.3726 28.1456 33.1771 27.0497C32.5793 26.5515 32.2804 26.153 32.0812 25.9538C31.7823 25.5552 31.7823 25.2564 31.882 24.8579C31.9816 24.559 32.3801 24.0608 33.0775 23.1642C33.476 22.666 33.6752 22.3672 33.9741 22.0683C35.4685 20.0757 36.1659 18.7806 35.9667 18.1828L35.8671 18.0832C35.7674 17.9836 35.6678 17.8839 35.4685 17.8839C35.2693 17.7843 34.9704 17.7843 34.6715 17.8839H30.8857C30.786 17.8839 30.786 17.8839 30.5868 17.8839C30.4871 17.8839 30.3875 17.8839 30.3875 17.8839H30.2879H30.1883L30.0886 17.9836C29.989 18.0832 29.989 18.0832 29.989 18.1828C29.5905 19.2787 29.0924 20.1754 28.5942 21.1716C28.2953 21.6698 27.9965 22.1679 27.6976 22.5664C27.3987 22.9649 27.1994 23.2638 27.0002 23.4631C26.8009 23.6623 26.6017 23.762 26.502 23.9612C26.4024 24.0608 26.2032 24.1605 26.2032 24.0608C26.1035 24.0608 26.0039 24.0608 26.0039 23.9612C25.9043 23.8616 25.8047 23.7619 25.705 23.6623C25.6054 23.5627 25.6054 23.3634 25.5058 23.1642C25.5058 22.9649 25.5058 22.7657 25.5058 22.666C25.5058 22.5664 25.5058 22.2675 25.5058 22.0683C25.5058 21.7694 25.5058 21.5701 25.5058 21.4705C25.5058 21.1716 25.5058 20.7731 25.5058 20.3746C25.5058 19.9761 25.5058 19.6772 25.5058 19.478C25.5058 19.2787 25.5058 18.9798 25.5058 18.7806C25.5058 18.4817 25.5058 18.2824 25.5058 18.1828C25.5058 18.0832 25.4062 17.8839 25.4062 17.7843C25.3065 17.6847 25.2069 17.585 25.1073 17.4854C25.0076 17.3858 24.8084 17.3858 24.7088 17.2862C24.2106 17.1865 23.6129 17.0869 22.9155 17.0869C21.3214 17.0869 20.2255 17.1865 19.827 17.3858C19.6278 17.4854 19.4285 17.585 19.3289 17.7843C19.1296 17.9836 19.1296 18.0832 19.2292 18.0832C19.7274 18.1828 20.1259 18.3821 20.3252 18.6809L20.4248 18.8802C20.5244 18.9798 20.5244 19.1791 20.624 19.478C20.7237 19.7769 20.7237 20.0757 20.7237 20.4742C20.7237 21.072 20.7237 21.6698 20.7237 22.0683C20.7237 22.5664 20.624 22.8653 20.624 23.1642C20.624 23.4631 20.5244 23.6623 20.4248 23.762C20.3252 23.9612 20.3251 24.0608 20.2255 24.0608C20.2255 24.0608 20.2255 24.1605 20.1259 24.1605C20.0263 24.1605 19.9266 24.2601 19.7274 24.2601C19.6278 24.2601 19.4285 24.1605 19.3289 24.0608C19.1296 23.9612 18.9304 23.762 18.8307 23.5627C18.6315 23.3634 18.4322 23.0646 18.233 22.666C18.0337 22.2675 17.7348 21.869 17.5356 21.2713L17.3363 20.8728C17.2367 20.6735 17.0374 20.275 16.8382 19.7769C16.6389 19.2787 16.4397 18.8802 16.2404 18.3821C16.1408 18.1828 16.0412 18.0832 15.9416 17.9836H15.8419C15.8419 17.9836 15.7423 17.8839 15.6426 17.8839C15.543 17.8839 15.4434 17.7843 15.3438 17.7843H11.7572C11.3587 17.7843 11.1594 17.8839 11.0598 17.9836L10.9602 18.0832C10.9602 18.0832 10.9602 18.1828 10.9602 18.2824C10.9602 18.3821 10.9602 18.4817 11.0598 18.6809C11.5579 19.8765 12.1557 21.072 12.7535 22.2675C13.3512 23.3634 13.949 24.3597 14.3475 25.0571C14.8456 25.7545 15.2441 26.4519 15.7423 27.0497C16.2404 27.6474 16.5393 28.0459 16.6389 28.2452C16.8382 28.4444 16.9378 28.5441 17.0374 28.6437L17.3363 28.9426C17.5356 29.1418 17.8345 29.4407 18.233 29.7396C18.6315 30.0385 19.1296 30.3374 19.6277 30.6362C20.1259 30.9351 20.7237 31.1344 21.3214 31.3337C22.0188 31.5329 22.6166 31.6325 23.2143 31.5329H24.7088C25.0076 31.5329 25.2069 31.4333 25.4062 31.234L25.5058 31.1344C25.5058 31.0348 25.6054 31.0348 25.6054 30.9351C25.6054 30.8355 25.6054 30.7359 25.6054 30.5366C25.6054 30.1381 25.6054 29.8392 25.705 29.5404C25.8047 29.2415 25.8047 29.0422 25.9043 28.843C26.0039 28.6437 26.1035 28.5441 26.2032 28.4444C26.3028 28.3448 26.4024 28.2452 26.4024 28.2452H26.502C26.7013 28.1456 27.0002 28.2452 27.1994 28.4444C27.4983 28.6437 27.7972 28.9426 27.9965 29.2415C28.1957 29.5404 28.4946 29.8392 28.8931 30.2377C29.2916 30.6363 29.5905 30.9351 29.7898 31.0348L30.0886 31.234C30.2879 31.3336 30.4872 31.4333 30.786 31.5329C31.0849 31.6325 31.2842 31.6325 31.4834 31.6325L34.8708 31.5329C35.1697 31.5329 35.4685 31.4333 35.6678 31.3337C35.867 31.234 35.9667 31.1344 35.9667 30.9351C35.9667 30.8355 35.9667 30.6363 35.9667 30.5366C35.7674 30.3374 35.7674 30.2377 35.7674 30.1381Z" fill="white"/>
</svg>
